<svg width="28" height="28" viewBox="0 0 28 28" fill="none" xmlns="http://www.w3.org/2000/svg">
<g id="linkedin-161_svgrepo.com" clip-path="url(#clip0_586_49)">
<g id="Page-1">
<g id="Dribbble-Light-Preview">
<g id="icons">
<path id="linkedin-[#161]" fill-rule="evenodd" clip-rule="evenodd" d="M28 28H22.4V18.2014C22.4 15.5134 21.2142 14.0137 19.0876 14.0137C16.7734 14.0137 15.4 15.5764 15.4 18.2014V28H9.8V9.8H15.4V11.8467C15.4 11.8467 17.157 8.76367 21.1162 8.76367C25.0768 8.76367 28 11.1805 28 16.1813V28ZM3.4188 6.88926C1.5302 6.88926 0 5.34655 0 3.44395C0 1.54275 1.5302 0 3.4188 0C5.306 0 6.83619 1.54275 6.83619 3.44395C6.83759 5.34655 5.306 6.88926 3.4188 6.88926ZM0 28H7V9.8H0V28Z" fill="white"/>
</g>
</g>
</g>
</g>
<defs>
<clipPath id="clip0_586_49">
<rect width="28" height="28" fill="white"/>
</clipPath>
</defs>
</svg>
