<svg width="32" height="27" viewBox="0 0 32 27" fill="none" xmlns="http://www.w3.org/2000/svg">
<g id="Page-1">
<g id="Dribbble-Light-Preview">
<g id="icons">
<path id="twitter-[#154]" fill-rule="evenodd" clip-rule="evenodd" d="M10.064 26.4005C22.1392 26.4005 28.744 16.5502 28.744 8.00905C28.744 7.72865 28.744 7.45036 28.7248 7.17311C30.0096 6.25945 31.1184 5.12503 32 3.82702C30.8032 4.35001 29.5312 4.69299 28.2304 4.8442C29.6 4.03609 30.6256 2.7665 31.1168 1.26842C29.8272 2.0214 28.4176 2.55282 26.9472 2.83795C24.4608 0.235601 20.3024 0.109516 17.6576 2.55748C15.9536 4.1359 15.2288 6.4893 15.7584 8.73405C10.48 8.47256 5.5616 6.01833 2.2272 1.98092C0.4848 4.93454 1.376 8.71164 4.2608 10.6083C3.216 10.5783 2.1936 10.3014 1.28 9.80045V9.88248C1.2816 12.959 3.4848 15.608 6.5472 16.2176C5.5808 16.4776 4.5664 16.5153 3.584 16.3278C4.4432 18.9617 6.9088 20.7657 9.7168 20.8176C7.392 22.6166 4.52 23.5934 1.5632 23.5903C1.0416 23.5887 0.52 23.5588 0 23.4973C3.0032 25.394 6.496 26.4005 10.064 26.3958" fill="white"/>
</g>
</g>
</g>
</svg>
